<svg width="18" height="24" fill="none" xmlns="http://www.w3.org/2000/svg"><path d="m9 23.282-3.864-3.977h-.001c-2.338-2.389-3.485-4.294-4.056-5.887C.51 11.828.5 10.512.5 9.242.5 4.402 4.325.5 8.991.5 13.66.5 17.5 4.402 17.5 9.242c0 1.27-.01 2.586-.58 4.176-.57 1.593-1.717 3.498-4.055 5.886l-.001.002L9 23.281Z" fill="#00A1FF" stroke="#0076C5"/><path d="m12.88 10.5-.5-1.15a1.395 1.395 0 0 0-1.266-.85h-4.23a1.395 1.395 0 0 0-1.255.85l-.5 1.15h-.88a.635.635 0 0 0 0 1h.25v3a.5.5 0 0 0 .5.5h1.5a.5.5 0 0 0 .5-.5V14h4v.5a.5.5 0 0 0 .5.5H13a.5.5 0 0 0 .5-.5v-3h.25a.63.63 0 0 0 0-1h-.87Zm-6.336-.745a.395.395 0 0 1 .34-.255h4.23a.395.395 0 0 1 .34.255L12 11H6l.545-1.245ZM7 13H5.75a.625.625 0 0 1 0-1H7v1Zm5.25 0H11v-1h1.25a.625.625 0 0 1 0 1ZM11 7h1.5v.25a.5.5 0 0 1-.5.5h-1V7Zm-.5 1h-2a1 1 0 0 1-1-1h-2a.625.625 0 0 1 0-1h2a1 1 0 0 1 1-1h2v3ZM12 5.255a.5.5 0 0 1 .5.5V6H11v-.75l1 .005Z" fill="#fff"/></svg>