<?xml version="1.0" encoding="UTF-8" standalone="no"?>
<svg
   width="322"
   height="173"
   viewBox="0 0 322 173"
   fill="none"
   version="1.1"
   id="svg140"
   sodipodi:docname="charge.61bfc66b.svg"
   inkscape:version="1.2.2 (b0a84865, 2022-12-01)"
   xmlns:inkscape="http://www.inkscape.org/namespaces/inkscape"
   xmlns:sodipodi="http://sodipodi.sourceforge.net/DTD/sodipodi-0.dtd"
   xmlns="http://www.w3.org/2000/svg"
   xmlns:svg="http://www.w3.org/2000/svg">
  <sodipodi:namedview
     id="namedview142"
     pagecolor="#ffffff"
     bordercolor="#000000"
     borderopacity="0.25"
     inkscape:showpageshadow="2"
     inkscape:pageopacity="0.0"
     inkscape:pagecheckerboard="0"
     inkscape:deskcolor="#d1d1d1"
     showgrid="false"
     inkscape:zoom="1.3641618"
     inkscape:cx="161.63771"
     inkscape:cy="86.5"
     inkscape:window-width="1309"
     inkscape:window-height="456"
     inkscape:window-x="53"
     inkscape:window-y="44"
     inkscape:window-maximized="0"
     inkscape:current-layer="svg140" />
  <path
     d="M234.746 9.96875V125.969"
     stroke="#0F3773"
     stroke-opacity="0.1"
     id="path2" />
  <path
     d="M298.664 9.96875V125.969"
     stroke="#0F3773"
     stroke-opacity="0.1"
     id="path4" />
  <g
     clip-path="url(#clip0_3136_58433)"
     id="g10">
    <g
       clip-path="url(#clip1_3136_58433)"
       id="g8">
      <path
         d="M291.416 125.435H318.672"
         stroke="#071731"
         stroke-opacity="0.6"
         stroke-width="2"
         stroke-linecap="round"
         id="path6" />
    </g>
  </g>
  <path
     d="M284.867 135.821C285.347 135.821 285.767 135.917 286.127 136.109C286.495 136.301 286.779 136.565 286.979 136.901C287.179 137.229 287.279 137.601 287.279 138.017C287.279 138.505 287.167 138.973 286.943 139.421C286.727 139.869 286.391 140.353 285.935 140.873C285.479 141.393 284.787 142.117 283.859 143.045H287.471L287.339 143.969H282.599V143.093C283.671 141.981 284.431 141.169 284.879 140.657C285.327 140.137 285.647 139.685 285.839 139.301C286.031 138.917 286.127 138.505 286.127 138.065C286.127 137.649 286.007 137.325 285.767 137.093C285.527 136.853 285.207 136.733 284.807 136.733C284.479 136.733 284.191 136.801 283.943 136.937C283.695 137.073 283.439 137.297 283.175 137.609L282.431 137.033C282.759 136.625 283.123 136.321 283.523 136.121C283.923 135.921 284.371 135.821 284.867 135.821ZM293.112 136.805H289.98V139.169C290.388 138.961 290.816 138.857 291.264 138.857C291.952 138.857 292.504 139.085 292.92 139.541C293.336 139.989 293.544 140.609 293.544 141.401C293.544 141.929 293.428 142.401 293.196 142.817C292.964 143.225 292.636 143.545 292.212 143.777C291.796 144.001 291.312 144.113 290.76 144.113C290.272 144.113 289.836 144.029 289.452 143.861C289.068 143.685 288.712 143.429 288.384 143.093L289.056 142.445C289.296 142.709 289.552 142.905 289.824 143.033C290.096 143.153 290.404 143.213 290.748 143.213C291.26 143.213 291.66 143.053 291.948 142.733C292.244 142.413 292.392 141.961 292.392 141.377C292.392 140.793 292.26 140.369 291.996 140.105C291.732 139.841 291.376 139.709 290.928 139.709C290.72 139.709 290.528 139.733 290.352 139.781C290.176 139.821 289.988 139.889 289.788 139.985H288.924V135.941H293.268L293.112 136.805ZM297.432 135.821C298.32 135.821 298.988 136.177 299.436 136.889C299.892 137.593 300.12 138.617 300.12 139.961C300.12 141.305 299.892 142.333 299.436 143.045C298.988 143.757 298.32 144.113 297.432 144.113C296.544 144.113 295.872 143.757 295.416 143.045C294.968 142.333 294.744 141.305 294.744 139.961C294.744 138.617 294.968 137.593 295.416 136.889C295.872 136.177 296.544 135.821 297.432 135.821ZM297.432 136.697C296.912 136.697 296.524 136.953 296.268 137.465C296.02 137.977 295.896 138.809 295.896 139.961C295.896 141.113 296.02 141.949 296.268 142.469C296.524 142.981 296.912 143.237 297.432 143.237C297.944 143.237 298.328 142.981 298.584 142.469C298.84 141.949 298.968 141.113 298.968 139.961C298.968 138.817 298.84 137.989 298.584 137.477C298.328 136.957 297.944 136.697 297.432 136.697ZM303.019 143.969H301.915V135.101L303.019 134.969V143.969ZM304.327 140.441L306.919 143.969H305.599L303.091 140.513L305.419 137.645H306.655L304.327 140.441ZM314.404 137.501C314.924 137.501 315.34 137.677 315.652 138.029C315.964 138.373 316.12 138.841 316.12 139.433V143.969H315.016V139.589C315.016 138.773 314.72 138.365 314.128 138.365C313.816 138.365 313.552 138.457 313.336 138.641C313.12 138.817 312.888 139.097 312.64 139.481V143.969H311.536V139.589C311.536 138.773 311.24 138.365 310.648 138.365C310.328 138.365 310.06 138.457 309.844 138.641C309.628 138.825 309.4 139.105 309.16 139.481V143.969H308.056V137.645H309.004L309.1 138.569C309.572 137.857 310.18 137.501 310.924 137.501C311.316 137.501 311.648 137.601 311.92 137.801C312.2 138.001 312.4 138.281 312.52 138.641C312.768 138.273 313.04 137.993 313.336 137.801C313.64 137.601 313.996 137.501 314.404 137.501Z"
     fill="#071731"
     fill-opacity="0.6"
     id="path12" />
  <rect
     width="1"
     height="5"
     transform="translate(299.289 124.969)"
     fill="#071731"
     fill-opacity="0.6"
     id="rect14" />
  <path
     d="M173.732 9.96875V125.969"
     stroke="#0F3773"
     stroke-opacity="0.1"
     id="path16" />
  <g
     clip-path="url(#clip2_3136_58433)"
     id="g22">
    <g
       clip-path="url(#clip3_3136_58433)"
       id="g20">
      <path
         d="M228.961 125.435H291.217"
         stroke="#071731"
         stroke-opacity="0.6"
         stroke-width="2"
         stroke-linecap="round"
         id="path18" />
    </g>
  </g>
  <path
     d="M220.58 135.821C221.06 135.821 221.48 135.917 221.84 136.109C222.208 136.301 222.492 136.565 222.692 136.901C222.892 137.229 222.992 137.601 222.992 138.017C222.992 138.505 222.88 138.973 222.656 139.421C222.44 139.869 222.104 140.353 221.648 140.873C221.192 141.393 220.5 142.117 219.572 143.045H223.184L223.052 143.969H218.312V143.093C219.384 141.981 220.144 141.169 220.592 140.657C221.04 140.137 221.36 139.685 221.552 139.301C221.744 138.917 221.84 138.505 221.84 138.065C221.84 137.649 221.72 137.325 221.48 137.093C221.24 136.853 220.92 136.733 220.52 136.733C220.192 136.733 219.904 136.801 219.656 136.937C219.408 137.073 219.152 137.297 218.888 137.609L218.144 137.033C218.472 136.625 218.836 136.321 219.236 136.121C219.636 135.921 220.084 135.821 220.58 135.821ZM227.133 135.821C228.021 135.821 228.689 136.177 229.137 136.889C229.593 137.593 229.821 138.617 229.821 139.961C229.821 141.305 229.593 142.333 229.137 143.045C228.689 143.757 228.021 144.113 227.133 144.113C226.245 144.113 225.573 143.757 225.117 143.045C224.669 142.333 224.445 141.305 224.445 139.961C224.445 138.617 224.669 137.593 225.117 136.889C225.573 136.177 226.245 135.821 227.133 135.821ZM227.133 136.697C226.613 136.697 226.225 136.953 225.969 137.465C225.721 137.977 225.597 138.809 225.597 139.961C225.597 141.113 225.721 141.949 225.969 142.469C226.225 142.981 226.613 143.237 227.133 143.237C227.645 143.237 228.029 142.981 228.285 142.469C228.541 141.949 228.669 141.113 228.669 139.961C228.669 138.817 228.541 137.989 228.285 137.477C228.029 136.957 227.645 136.697 227.133 136.697ZM233.825 135.821C234.713 135.821 235.381 136.177 235.829 136.889C236.285 137.593 236.513 138.617 236.513 139.961C236.513 141.305 236.285 142.333 235.829 143.045C235.381 143.757 234.713 144.113 233.825 144.113C232.937 144.113 232.265 143.757 231.809 143.045C231.361 142.333 231.137 141.305 231.137 139.961C231.137 138.617 231.361 137.593 231.809 136.889C232.265 136.177 232.937 135.821 233.825 135.821ZM233.825 136.697C233.305 136.697 232.917 136.953 232.661 137.465C232.413 137.977 232.289 138.809 232.289 139.961C232.289 141.113 232.413 141.949 232.661 142.469C232.917 142.981 233.305 143.237 233.825 143.237C234.337 143.237 234.721 142.981 234.977 142.469C235.233 141.949 235.361 141.113 235.361 139.961C235.361 138.817 235.233 137.989 234.977 137.477C234.721 136.957 234.337 136.697 233.825 136.697ZM239.412 143.969H238.308V135.101L239.412 134.969V143.969ZM240.72 140.441L243.312 143.969H241.992L239.484 140.513L241.812 137.645H243.048L240.72 140.441ZM250.797 137.501C251.317 137.501 251.733 137.677 252.045 138.029C252.357 138.373 252.513 138.841 252.513 139.433V143.969H251.409V139.589C251.409 138.773 251.113 138.365 250.521 138.365C250.209 138.365 249.945 138.457 249.729 138.641C249.513 138.817 249.281 139.097 249.033 139.481V143.969H247.929V139.589C247.929 138.773 247.633 138.365 247.041 138.365C246.721 138.365 246.453 138.457 246.237 138.641C246.021 138.825 245.793 139.105 245.553 139.481V143.969H244.449V137.645H245.397L245.493 138.569C245.965 137.857 246.573 137.501 247.317 137.501C247.709 137.501 248.041 137.601 248.313 137.801C248.593 138.001 248.793 138.281 248.913 138.641C249.161 138.273 249.433 137.993 249.729 137.801C250.033 137.601 250.389 137.501 250.797 137.501Z"
     fill="#071731"
     fill-opacity="0.6"
     id="path24" />
  <rect
     width="1"
     height="5"
     transform="translate(235.342 124.969)"
     fill="#071731"
     fill-opacity="0.6"
     id="rect26" />
  <path
     d="M110.783 9.96875V125.969"
     stroke="#0F3773"
     stroke-opacity="0.1"
     id="path28" />
  <g
     clip-path="url(#clip4_3136_58433)"
     id="g34">
    <g
       clip-path="url(#clip5_3136_58433)"
       id="g32">
      <path
         d="M166.771 125.435H229.027"
         stroke="#071731"
         stroke-opacity="0.6"
         stroke-width="2"
         stroke-linecap="round"
         id="path30" />
    </g>
  </g>
  <path
     d="M161.704 143.969H160.6V137.117L158.728 138.257L158.248 137.477L160.732 135.941H161.704V143.969ZM168.06 136.805H164.928V139.169C165.336 138.961 165.764 138.857 166.212 138.857C166.9 138.857 167.452 139.085 167.868 139.541C168.284 139.989 168.492 140.609 168.492 141.401C168.492 141.929 168.376 142.401 168.144 142.817C167.912 143.225 167.584 143.545 167.16 143.777C166.744 144.001 166.26 144.113 165.708 144.113C165.22 144.113 164.784 144.029 164.4 143.861C164.016 143.685 163.66 143.429 163.332 143.093L164.004 142.445C164.244 142.709 164.5 142.905 164.772 143.033C165.044 143.153 165.352 143.213 165.696 143.213C166.208 143.213 166.608 143.053 166.896 142.733C167.192 142.413 167.34 141.961 167.34 141.377C167.34 140.793 167.208 140.369 166.944 140.105C166.68 139.841 166.324 139.709 165.876 139.709C165.668 139.709 165.476 139.733 165.3 139.781C165.124 139.821 164.936 139.889 164.736 139.985H163.872V135.941H168.216L168.06 136.805ZM172.379 135.821C173.267 135.821 173.935 136.177 174.383 136.889C174.839 137.593 175.067 138.617 175.067 139.961C175.067 141.305 174.839 142.333 174.383 143.045C173.935 143.757 173.267 144.113 172.379 144.113C171.491 144.113 170.819 143.757 170.363 143.045C169.915 142.333 169.691 141.305 169.691 139.961C169.691 138.617 169.915 137.593 170.363 136.889C170.819 136.177 171.491 135.821 172.379 135.821ZM172.379 136.697C171.859 136.697 171.471 136.953 171.215 137.465C170.967 137.977 170.843 138.809 170.843 139.961C170.843 141.113 170.967 141.949 171.215 142.469C171.471 142.981 171.859 143.237 172.379 143.237C172.891 143.237 173.275 142.981 173.531 142.469C173.787 141.949 173.915 141.113 173.915 139.961C173.915 138.817 173.787 137.989 173.531 137.477C173.275 136.957 172.891 136.697 172.379 136.697ZM177.967 143.969H176.863V135.101L177.967 134.969V143.969ZM179.275 140.441L181.867 143.969H180.547L178.039 140.513L180.367 137.645H181.603L179.275 140.441ZM189.351 137.501C189.871 137.501 190.287 137.677 190.599 138.029C190.911 138.373 191.067 138.841 191.067 139.433V143.969H189.963V139.589C189.963 138.773 189.667 138.365 189.075 138.365C188.763 138.365 188.499 138.457 188.283 138.641C188.067 138.817 187.835 139.097 187.587 139.481V143.969H186.483V139.589C186.483 138.773 186.187 138.365 185.595 138.365C185.275 138.365 185.007 138.457 184.791 138.641C184.575 138.825 184.347 139.105 184.107 139.481V143.969H183.003V137.645H183.951L184.047 138.569C184.519 137.857 185.127 137.501 185.871 137.501C186.263 137.501 186.595 137.601 186.867 137.801C187.147 138.001 187.347 138.281 187.467 138.641C187.715 138.273 187.987 137.993 188.283 137.801C188.587 137.601 188.943 137.501 189.351 137.501Z"
     fill="#071731"
     fill-opacity="0.6"
     id="path36" />
  <rect
     width="1"
     height="5"
     transform="translate(174.111 124.969)"
     fill="#071731"
     fill-opacity="0.6"
     id="rect38" />
  <path
     d="M59.4551 9.96875V125.969"
     stroke="#0F3773"
     stroke-opacity="0.1"
     id="path40" />
  <g
     clip-path="url(#clip6_3136_58433)"
     id="g46">
    <g
       clip-path="url(#clip7_3136_58433)"
       id="g44">
      <path
         d="M104.029 125.435H166.285"
         stroke="#071731"
         stroke-opacity="0.6"
         stroke-width="2"
         stroke-linecap="round"
         id="path42" />
    </g>
  </g>
  <path
     d="M98.3096 143.969H97.2056V137.117L95.3336 138.257L94.8536 137.477L97.3376 135.941H98.3096V143.969ZM102.973 135.821C103.861 135.821 104.529 136.177 104.977 136.889C105.433 137.593 105.661 138.617 105.661 139.961C105.661 141.305 105.433 142.333 104.977 143.045C104.529 143.757 103.861 144.113 102.973 144.113C102.085 144.113 101.413 143.757 100.957 143.045C100.509 142.333 100.285 141.305 100.285 139.961C100.285 138.617 100.509 137.593 100.957 136.889C101.413 136.177 102.085 135.821 102.973 135.821ZM102.973 136.697C102.453 136.697 102.065 136.953 101.809 137.465C101.561 137.977 101.437 138.809 101.437 139.961C101.437 141.113 101.561 141.949 101.809 142.469C102.065 142.981 102.453 143.237 102.973 143.237C103.485 143.237 103.869 142.981 104.125 142.469C104.381 141.949 104.509 141.113 104.509 139.961C104.509 138.817 104.381 137.989 104.125 137.477C103.869 136.957 103.485 136.697 102.973 136.697ZM109.664 135.821C110.552 135.821 111.22 136.177 111.668 136.889C112.124 137.593 112.352 138.617 112.352 139.961C112.352 141.305 112.124 142.333 111.668 143.045C111.22 143.757 110.552 144.113 109.664 144.113C108.776 144.113 108.104 143.757 107.648 143.045C107.2 142.333 106.976 141.305 106.976 139.961C106.976 138.617 107.2 137.593 107.648 136.889C108.104 136.177 108.776 135.821 109.664 135.821ZM109.664 136.697C109.144 136.697 108.756 136.953 108.5 137.465C108.252 137.977 108.128 138.809 108.128 139.961C108.128 141.113 108.252 141.949 108.5 142.469C108.756 142.981 109.144 143.237 109.664 143.237C110.176 143.237 110.56 142.981 110.816 142.469C111.072 141.949 111.2 141.113 111.2 139.961C111.2 138.817 111.072 137.989 110.816 137.477C110.56 136.957 110.176 136.697 109.664 136.697ZM115.252 143.969H114.148V135.101L115.252 134.969V143.969ZM116.56 140.441L119.152 143.969H117.832L115.324 140.513L117.652 137.645H118.888L116.56 140.441ZM126.636 137.501C127.156 137.501 127.572 137.677 127.884 138.029C128.196 138.373 128.352 138.841 128.352 139.433V143.969H127.248V139.589C127.248 138.773 126.952 138.365 126.36 138.365C126.048 138.365 125.784 138.457 125.568 138.641C125.352 138.817 125.12 139.097 124.872 139.481V143.969H123.768V139.589C123.768 138.773 123.472 138.365 122.88 138.365C122.56 138.365 122.292 138.457 122.076 138.641C121.86 138.825 121.632 139.105 121.392 139.481V143.969H120.288V137.645H121.236L121.332 138.569C121.804 137.857 122.412 137.501 123.156 137.501C123.548 137.501 123.88 137.601 124.152 137.801C124.432 138.001 124.632 138.281 124.752 138.641C125 138.273 125.272 137.993 125.568 137.801C125.872 137.601 126.228 137.501 126.636 137.501Z"
     fill="#071731"
     fill-opacity="0.6"
     id="path48" />
  <rect
     width="1"
     height="5"
     transform="translate(111.557 124.969)"
     fill="#071731"
     fill-opacity="0.6"
     id="rect50" />
  <path
     d="M40.0859 8.96875V125.969"
     stroke="#0F3773"
     stroke-opacity="0.1"
     id="path52" />
  <g
     clip-path="url(#clip8_3136_58433)"
     id="g58">
    <g
       clip-path="url(#clip9_3136_58433)"
       id="g56">
      <path
         d="M41.0742 125.435H103.33"
         stroke="#071731"
         stroke-opacity="0.6"
         stroke-width="2"
         stroke-linecap="round"
         id="path54" />
    </g>
  </g>
  <path
     d="M50.8877 136.805H47.7557V139.169C48.1637 138.961 48.5917 138.857 49.0397 138.857C49.7277 138.857 50.2797 139.085 50.6957 139.541C51.1117 139.989 51.3197 140.609 51.3197 141.401C51.3197 141.929 51.2037 142.401 50.9717 142.817C50.7397 143.225 50.4117 143.545 49.9877 143.777C49.5717 144.001 49.0877 144.113 48.5357 144.113C48.0477 144.113 47.6117 144.029 47.2277 143.861C46.8437 143.685 46.4877 143.429 46.1597 143.093L46.8317 142.445C47.0717 142.709 47.3277 142.905 47.5997 143.033C47.8717 143.153 48.1797 143.213 48.5237 143.213C49.0357 143.213 49.4357 143.053 49.7237 142.733C50.0197 142.413 50.1677 141.961 50.1677 141.377C50.1677 140.793 50.0357 140.369 49.7717 140.105C49.5077 139.841 49.1517 139.709 48.7037 139.709C48.4957 139.709 48.3037 139.733 48.1277 139.781C47.9517 139.821 47.7637 139.889 47.5637 139.985H46.6997V135.941H51.0437L50.8877 136.805ZM55.2074 135.821C56.0954 135.821 56.7634 136.177 57.2114 136.889C57.6674 137.593 57.8954 138.617 57.8954 139.961C57.8954 141.305 57.6674 142.333 57.2114 143.045C56.7634 143.757 56.0954 144.113 55.2074 144.113C54.3194 144.113 53.6474 143.757 53.1914 143.045C52.7434 142.333 52.5194 141.305 52.5194 139.961C52.5194 138.617 52.7434 137.593 53.1914 136.889C53.6474 136.177 54.3194 135.821 55.2074 135.821ZM55.2074 136.697C54.6874 136.697 54.2994 136.953 54.0434 137.465C53.7954 137.977 53.6714 138.809 53.6714 139.961C53.6714 141.113 53.7954 141.949 54.0434 142.469C54.2994 142.981 54.6874 143.237 55.2074 143.237C55.7194 143.237 56.1034 142.981 56.3594 142.469C56.6154 141.949 56.7434 141.113 56.7434 139.961C56.7434 138.817 56.6154 137.989 56.3594 137.477C56.1034 136.957 55.7194 136.697 55.2074 136.697ZM60.7948 143.969H59.6908V135.101L60.7948 134.969V143.969ZM62.1028 140.441L64.6948 143.969H63.3748L60.8668 140.513L63.1948 137.645H64.4308L62.1028 140.441ZM72.1794 137.501C72.6994 137.501 73.1154 137.677 73.4274 138.029C73.7394 138.373 73.8954 138.841 73.8954 139.433V143.969H72.7914V139.589C72.7914 138.773 72.4954 138.365 71.9034 138.365C71.5914 138.365 71.3274 138.457 71.1114 138.641C70.8954 138.817 70.6634 139.097 70.4154 139.481V143.969H69.3114V139.589C69.3114 138.773 69.0154 138.365 68.4234 138.365C68.1034 138.365 67.8354 138.457 67.6194 138.641C67.4034 138.825 67.1754 139.105 66.9354 139.481V143.969H65.8314V137.645H66.7794L66.8754 138.569C67.3474 137.857 67.9554 137.501 68.6994 137.501C69.0914 137.501 69.4234 137.601 69.6954 137.801C69.9754 138.001 70.1754 138.281 70.2954 138.641C70.5434 138.273 70.8154 137.993 71.1114 137.801C71.4154 137.601 71.7714 137.501 72.1794 137.501Z"
     fill="#071731"
     fill-opacity="0.6"
     id="path60" />
  <rect
     width="1"
     height="5"
     transform="translate(60.0352 124.969)"
     fill="#071731"
     fill-opacity="0.6"
     id="rect62" />
  <path
     d="M41.5547 9.96875V124.969H319.501V31.9688H309.817V29.9688H302.069V26.9688H294.321V23.9688H285.605V22.9688H277.858V19.9688H270.11V17.9688H262.362V15.9688H254.615V12.9688H246.867V9.96875H246.383H235.246V96.9688H231.372V92.9688H223.624V88.9688H215.876V84.9688H208.129V80.9688H199.413V77.9688H191.665V73.9688H183.917V68.9688H176.17V64.9688H168.422V61.9688H160.675V58.9688H152.927V56.9688H145.179V50.9688H136.463V48.9688H128.716V46.9688H120.968V44.9688H113.22V40.9688H105.473V34.9688H97.725V31.9688H89.9774V27.9688H82.2298V21.9688H74.4821V19.9688H66.7345V16.9688H58.0184V13.9688H50.2708V9.96875H41.5547Z"
     fill="url(#paint0_linear_3136_58433)"
     fill-opacity="0.1"
     stroke="url(#paint1_linear_3136_58433)"
     id="path64" />
  <path
     d="M12.5915 5.852C13.0715 5.852 13.4915 5.948 13.8515 6.14C14.2195 6.332 14.5035 6.596 14.7035 6.932C14.9035 7.26 15.0035 7.632 15.0035 8.048C15.0035 8.536 14.8915 9.004 14.6675 9.452C14.4515 9.9 14.1155 10.384 13.6595 10.904C13.2035 11.424 12.5115 12.148 11.5835 13.076H15.1955L15.0635 14H10.3235V13.124C11.3955 12.012 12.1555 11.2 12.6035 10.688C13.0515 10.168 13.3715 9.716 13.5635 9.332C13.7555 8.948 13.8515 8.536 13.8515 8.096C13.8515 7.68 13.7315 7.356 13.4915 7.124C13.2515 6.884 12.9315 6.764 12.5315 6.764C12.2035 6.764 11.9155 6.832 11.6675 6.968C11.4195 7.104 11.1635 7.328 10.8995 7.64L10.1555 7.064C10.4835 6.656 10.8475 6.352 11.2475 6.152C11.6475 5.952 12.0955 5.852 12.5915 5.852ZM20.8369 6.836H17.7049V9.2C18.1129 8.992 18.5409 8.888 18.9889 8.888C19.6769 8.888 20.2289 9.116 20.6449 9.572C21.0609 10.02 21.2689 10.64 21.2689 11.432C21.2689 11.96 21.1529 12.432 20.9209 12.848C20.6889 13.256 20.3609 13.576 19.9369 13.808C19.5209 14.032 19.0369 14.144 18.4849 14.144C17.9969 14.144 17.5609 14.06 17.1769 13.892C16.7929 13.716 16.4369 13.46 16.1089 13.124L16.7809 12.476C17.0209 12.74 17.2769 12.936 17.5489 13.064C17.8209 13.184 18.1289 13.244 18.4729 13.244C18.9849 13.244 19.3849 13.084 19.6729 12.764C19.9689 12.444 20.1169 11.992 20.1169 11.408C20.1169 10.824 19.9849 10.4 19.7209 10.136C19.4569 9.872 19.1009 9.74 18.6529 9.74C18.4449 9.74 18.2529 9.764 18.0769 9.812C17.9009 9.852 17.7129 9.92 17.5129 10.016H16.6489V5.972H20.9929L20.8369 6.836ZM25.1566 5.852C26.0446 5.852 26.7126 6.208 27.1606 6.92C27.6166 7.624 27.8446 8.648 27.8446 9.992C27.8446 11.336 27.6166 12.364 27.1606 13.076C26.7126 13.788 26.0446 14.144 25.1566 14.144C24.2686 14.144 23.5966 13.788 23.1406 13.076C22.6926 12.364 22.4686 11.336 22.4686 9.992C22.4686 8.648 22.6926 7.624 23.1406 6.92C23.5966 6.208 24.2686 5.852 25.1566 5.852ZM25.1566 6.728C24.6366 6.728 24.2486 6.984 23.9926 7.496C23.7446 8.008 23.6206 8.84 23.6206 9.992C23.6206 11.144 23.7446 11.98 23.9926 12.5C24.2486 13.012 24.6366 13.268 25.1566 13.268C25.6686 13.268 26.0526 13.012 26.3086 12.5C26.5646 11.98 26.6926 11.144 26.6926 9.992C26.6926 8.848 26.5646 8.02 26.3086 7.508C26.0526 6.988 25.6686 6.728 25.1566 6.728Z"
     fill="#071731"
     fill-opacity="0.6"
     id="path66" />
  <path
     fill-rule="evenodd"
     clip-rule="evenodd"
     d="M39.5 9.5H34.5H39.5Z"
     fill="#071731"
     fill-opacity="0.6"
     id="path68" />
  <path
     d="M39.5 9.5H34.5"
     stroke="#071731"
     stroke-opacity="0.6"
     id="path70" />
  <path
     d="M11.9118 33.6259C12.3918 33.6259 12.8118 33.7219 13.1718 33.9139C13.5398 34.1059 13.8238 34.3699 14.0238 34.7059C14.2238 35.0339 14.3238 35.4059 14.3238 35.8219C14.3238 36.3099 14.2118 36.7779 13.9878 37.2259C13.7718 37.6739 13.4358 38.1579 12.9798 38.6779C12.5238 39.1979 11.8318 39.9219 10.9038 40.8499H14.5158L14.3838 41.7739H9.64378V40.8979C10.7158 39.7859 11.4758 38.9739 11.9238 38.4619C12.3718 37.9419 12.6918 37.4899 12.8838 37.1059C13.0758 36.7219 13.1718 36.3099 13.1718 35.8699C13.1718 35.4539 13.0518 35.1299 12.8118 34.8979C12.5718 34.6579 12.2518 34.5379 11.8518 34.5379C11.5238 34.5379 11.2358 34.6059 10.9878 34.7419C10.7398 34.8779 10.4838 35.1019 10.2198 35.4139L9.47578 34.8379C9.80378 34.4299 10.1678 34.1259 10.5678 33.9259C10.9678 33.7259 11.4158 33.6259 11.9118 33.6259ZM18.4652 33.6259C19.3532 33.6259 20.0212 33.9819 20.4692 34.6939C20.9252 35.3979 21.1532 36.4219 21.1532 37.7659C21.1532 39.1099 20.9252 40.1379 20.4692 40.8499C20.0212 41.5619 19.3532 41.9179 18.4652 41.9179C17.5772 41.9179 16.9052 41.5619 16.4492 40.8499C16.0012 40.1379 15.7772 39.1099 15.7772 37.7659C15.7772 36.4219 16.0012 35.3979 16.4492 34.6939C16.9052 33.9819 17.5772 33.6259 18.4652 33.6259ZM18.4652 34.5019C17.9452 34.5019 17.5572 34.7579 17.3012 35.2699C17.0532 35.7819 16.9292 36.6139 16.9292 37.7659C16.9292 38.9179 17.0532 39.7539 17.3012 40.2739C17.5572 40.7859 17.9452 41.0419 18.4652 41.0419C18.9772 41.0419 19.3612 40.7859 19.6172 40.2739C19.8732 39.7539 20.0012 38.9179 20.0012 37.7659C20.0012 36.6219 19.8732 35.7939 19.6172 35.2819C19.3612 34.7619 18.9772 34.5019 18.4652 34.5019ZM25.1566 33.6259C26.0446 33.6259 26.7126 33.9819 27.1606 34.6939C27.6166 35.3979 27.8446 36.4219 27.8446 37.7659C27.8446 39.1099 27.6166 40.1379 27.1606 40.8499C26.7126 41.5619 26.0446 41.9179 25.1566 41.9179C24.2686 41.9179 23.5966 41.5619 23.1406 40.8499C22.6926 40.1379 22.4686 39.1099 22.4686 37.7659C22.4686 36.4219 22.6926 35.3979 23.1406 34.6939C23.5966 33.9819 24.2686 33.6259 25.1566 33.6259ZM25.1566 34.5019C24.6366 34.5019 24.2486 34.7579 23.9926 35.2699C23.7446 35.7819 23.6206 36.6139 23.6206 37.7659C23.6206 38.9179 23.7446 39.7539 23.9926 40.2739C24.2486 40.7859 24.6366 41.0419 25.1566 41.0419C25.6686 41.0419 26.0526 40.7859 26.3086 40.2739C26.5646 39.7539 26.6926 38.9179 26.6926 37.7659C26.6926 36.6219 26.5646 35.7939 26.3086 35.2819C26.0526 34.7619 25.6686 34.5019 25.1566 34.5019Z"
     fill="#071731"
     fill-opacity="0.6"
     id="path72" />
  <path
     fill-rule="evenodd"
     clip-rule="evenodd"
     d="M39.5 37.2739H34.5H39.5Z"
     fill="#071731"
     fill-opacity="0.6"
     id="path74" />
  <path
     d="M39.5 37.2739H34.5"
     stroke="#071731"
     stroke-opacity="0.6"
     id="path76" />
  <path
     d="M14.4815 69.5479H13.3775V62.6959L11.5055 63.8359L11.0255 63.0559L13.5095 61.5199H14.4815V69.5479ZM20.8369 62.3839H17.7049V64.7479C18.1129 64.5399 18.5409 64.4359 18.9889 64.4359C19.6769 64.4359 20.2289 64.6639 20.6449 65.1199C21.0609 65.5679 21.2689 66.1879 21.2689 66.9799C21.2689 67.5079 21.1529 67.9799 20.9209 68.3959C20.6889 68.8039 20.3609 69.1239 19.9369 69.3559C19.5209 69.5799 19.0369 69.6919 18.4849 69.6919C17.9969 69.6919 17.5609 69.6079 17.1769 69.4399C16.7929 69.2639 16.4369 69.0079 16.1089 68.6719L16.7809 68.0239C17.0209 68.2879 17.2769 68.4839 17.5489 68.6119C17.8209 68.7319 18.1289 68.7919 18.4729 68.7919C18.9849 68.7919 19.3849 68.6319 19.6729 68.3119C19.9689 67.9919 20.1169 67.5399 20.1169 66.9559C20.1169 66.3719 19.9849 65.9479 19.7209 65.6839C19.4569 65.4199 19.1009 65.2879 18.6529 65.2879C18.4449 65.2879 18.2529 65.3119 18.0769 65.3599C17.9009 65.3999 17.7129 65.4679 17.5129 65.5639H16.6489V61.5199H20.9929L20.8369 62.3839ZM25.1566 61.3999C26.0446 61.3999 26.7126 61.7559 27.1606 62.4679C27.6166 63.1719 27.8446 64.1959 27.8446 65.5399C27.8446 66.8839 27.6166 67.9119 27.1606 68.6239C26.7126 69.3359 26.0446 69.6919 25.1566 69.6919C24.2686 69.6919 23.5966 69.3359 23.1406 68.6239C22.6926 67.9119 22.4686 66.8839 22.4686 65.5399C22.4686 64.1959 22.6926 63.1719 23.1406 62.4679C23.5966 61.7559 24.2686 61.3999 25.1566 61.3999ZM25.1566 62.2759C24.6366 62.2759 24.2486 62.5319 23.9926 63.0439C23.7446 63.5559 23.6206 64.3879 23.6206 65.5399C23.6206 66.6919 23.7446 67.5279 23.9926 68.0479C24.2486 68.5599 24.6366 68.8159 25.1566 68.8159C25.6686 68.8159 26.0526 68.5599 26.3086 68.0479C26.5646 67.5279 26.6926 66.6919 26.6926 65.5399C26.6926 64.3959 26.5646 63.5679 26.3086 63.0559C26.0526 62.5359 25.6686 62.2759 25.1566 62.2759Z"
     fill="#071731"
     fill-opacity="0.6"
     id="path78" />
  <path
     fill-rule="evenodd"
     clip-rule="evenodd"
     d="M39.5 65.0479H34.5H39.5Z"
     fill="#071731"
     fill-opacity="0.6"
     id="path80" />
  <path
     d="M39.5 65.0479H34.5"
     stroke="#071731"
     stroke-opacity="0.6"
     id="path82" />
  <path
     d="M20.8369 90.1573H17.7049V92.5213C18.1129 92.3133 18.5409 92.2093 18.9889 92.2093C19.6769 92.2093 20.2289 92.4373 20.6449 92.8933C21.0609 93.3413 21.2689 93.9613 21.2689 94.7533C21.2689 95.2813 21.1529 95.7533 20.9209 96.1693C20.6889 96.5773 20.3609 96.8973 19.9369 97.1293C19.5209 97.3533 19.0369 97.4653 18.4849 97.4653C17.9969 97.4653 17.5609 97.3813 17.1769 97.2133C16.7929 97.0373 16.4369 96.7813 16.1089 96.4453L16.7809 95.7973C17.0209 96.0613 17.2769 96.2573 17.5489 96.3853C17.8209 96.5053 18.1289 96.5653 18.4729 96.5653C18.9849 96.5653 19.3849 96.4053 19.6729 96.0853C19.9689 95.7653 20.1169 95.3133 20.1169 94.7293C20.1169 94.1453 19.9849 93.7213 19.7209 93.4573C19.4569 93.1933 19.1009 93.0613 18.6529 93.0613C18.4449 93.0613 18.2529 93.0853 18.0769 93.1333C17.9009 93.1733 17.7129 93.2413 17.5129 93.3373H16.6489V89.2933H20.9929L20.8369 90.1573ZM25.1566 89.1733C26.0446 89.1733 26.7126 89.5293 27.1606 90.2413C27.6166 90.9453 27.8446 91.9693 27.8446 93.3133C27.8446 94.6573 27.6166 95.6853 27.1606 96.3973C26.7126 97.1093 26.0446 97.4653 25.1566 97.4653C24.2686 97.4653 23.5966 97.1093 23.1406 96.3973C22.6926 95.6853 22.4686 94.6573 22.4686 93.3133C22.4686 91.9693 22.6926 90.9453 23.1406 90.2413C23.5966 89.5293 24.2686 89.1733 25.1566 89.1733ZM25.1566 90.0493C24.6366 90.0493 24.2486 90.3053 23.9926 90.8173C23.7446 91.3293 23.6206 92.1613 23.6206 93.3133C23.6206 94.4653 23.7446 95.3013 23.9926 95.8213C24.2486 96.3333 24.6366 96.5893 25.1566 96.5893C25.6686 96.5893 26.0526 96.3333 26.3086 95.8213C26.5646 95.3013 26.6926 94.4653 26.6926 93.3133C26.6926 92.1693 26.5646 91.3413 26.3086 90.8293C26.0526 90.3093 25.6686 90.0493 25.1566 90.0493Z"
     fill="#071731"
     fill-opacity="0.6"
     id="path84" />
  <path
     fill-rule="evenodd"
     clip-rule="evenodd"
     d="M39.5 92.8213H34.5H39.5Z"
     fill="#071731"
     fill-opacity="0.6"
     id="path86" />
  <path
     d="M39.5 92.8213H34.5"
     stroke="#071731"
     stroke-opacity="0.6"
     id="path88" />
  <path
     d="M25.1566 119.058C26.0446 119.058 26.7126 119.414 27.1606 120.126C27.6166 120.83 27.8446 121.854 27.8446 123.198C27.8446 124.542 27.6166 125.57 27.1606 126.282C26.7126 126.994 26.0446 127.35 25.1566 127.35C24.2686 127.35 23.5966 126.994 23.1406 126.282C22.6926 125.57 22.4686 124.542 22.4686 123.198C22.4686 121.854 22.6926 120.83 23.1406 120.126C23.5966 119.414 24.2686 119.058 25.1566 119.058ZM25.1566 119.934C24.6366 119.934 24.2486 120.19 23.9926 120.702C23.7446 121.214 23.6206 122.046 23.6206 123.198C23.6206 124.35 23.7446 125.186 23.9926 125.706C24.2486 126.218 24.6366 126.474 25.1566 126.474C25.6686 126.474 26.0526 126.218 26.3086 125.706C26.5646 125.186 26.6926 124.35 26.6926 123.198C26.6926 122.054 26.5646 121.226 26.3086 120.714C26.0526 120.194 25.6686 119.934 25.1566 119.934Z"
     fill="#071731"
     fill-opacity="0.6"
     id="path90" />
  <path
     fill-rule="evenodd"
     clip-rule="evenodd"
     d="M39.5 122.706H34.5H39.5Z"
     fill="#071731"
     fill-opacity="0.6"
     id="path92" />
  <path
     d="M39.5 122.706H34.5"
     stroke="#071731"
     stroke-opacity="0.6"
     id="path94" />
  <defs
     id="defs138">
    <linearGradient
       id="paint0_linear_3136_58433"
       x1="181.012"
       y1="9.96875"
       x2="181.012"
       y2="124.969"
       gradientUnits="userSpaceOnUse">
      <stop
         offset="0.576832"
         stop-color="#0BC7C2"
         id="stop98" />
      <stop
         offset="0.844071"
         stop-color="#FA9D00"
         id="stop100" />
    </linearGradient>
    <linearGradient
       id="paint1_linear_3136_58433"
       x1="181.012"
       y1="9.96875"
       x2="181.012"
       y2="124.969"
       gradientUnits="userSpaceOnUse">
      <stop
         offset="0.70929"
         stop-color="#0BC7C2"
         id="stop103" />
      <stop
         offset="1"
         stop-color="#FA9D00"
         id="stop105" />
    </linearGradient>
    <clipPath
       id="clip0_3136_58433">
      <rect
         width="28"
         height="2"
         fill="white"
         transform="translate(291.416 124.969)"
         id="rect108" />
    </clipPath>
    <clipPath
       id="clip1_3136_58433">
      <rect
         width="28"
         height="1"
         fill="white"
         transform="translate(291.416 124.969)"
         id="rect111" />
    </clipPath>
    <clipPath
       id="clip2_3136_58433">
      <rect
         width="63"
         height="2"
         fill="white"
         transform="translate(228.961 124.969)"
         id="rect114" />
    </clipPath>
    <clipPath
       id="clip3_3136_58433">
      <rect
         width="63"
         height="1"
         fill="white"
         transform="translate(228.961 124.969)"
         id="rect117" />
    </clipPath>
    <clipPath
       id="clip4_3136_58433">
      <rect
         width="63"
         height="2"
         fill="white"
         transform="translate(166.771 124.969)"
         id="rect120" />
    </clipPath>
    <clipPath
       id="clip5_3136_58433">
      <rect
         width="63"
         height="1"
         fill="white"
         transform="translate(166.771 124.969)"
         id="rect123" />
    </clipPath>
    <clipPath
       id="clip6_3136_58433">
      <rect
         width="63"
         height="2"
         fill="white"
         transform="translate(104.029 124.969)"
         id="rect126" />
    </clipPath>
    <clipPath
       id="clip7_3136_58433">
      <rect
         width="63"
         height="1"
         fill="white"
         transform="translate(104.029 124.969)"
         id="rect129" />
    </clipPath>
    <clipPath
       id="clip8_3136_58433">
      <rect
         width="63"
         height="2"
         fill="white"
         transform="translate(41.0742 124.969)"
         id="rect132" />
    </clipPath>
    <clipPath
       id="clip9_3136_58433">
      <rect
         width="63"
         height="1"
         fill="white"
         transform="translate(41.0742 124.969)"
         id="rect135" />
    </clipPath>
  </defs>
</svg>
