<svg width="58" height="72" fill="none" xmlns="http://www.w3.org/2000/svg"><path d="m28.649 70.356.351.348.351-.348c1.704-1.682 3.527-3.396 5.395-5.152 4.392-4.128 9.032-8.49 12.95-13.231 5.598-6.777 9.804-14.42 9.804-23.456C57.5 13.036 44.7.501 29 .501S.5 13.036.5 28.517c0 9.036 4.204 16.677 9.802 23.453 3.916 4.74 8.555 9.1 12.947 13.23 1.87 1.757 3.694 3.472 5.4 5.156Z" stroke="#fff"/><path d="M1.5 28.518C1.5 13.605 13.835 1.5 29 1.5s27.5 12.104 27.5 27.017c0 8.705-4.045 16.125-9.573 22.815-3.874 4.69-8.436 8.977-12.808 13.087A326.744 326.744 0 0 0 29 69.299a326.744 326.744 0 0 0-5.119-4.88c-4.372-4.11-8.934-8.397-12.808-13.087C5.545 44.643 1.5 37.223 1.5 28.518Z" fill="#0AC7C0" stroke="#079199"/><path fill-rule="evenodd" clip-rule="evenodd" d="M29 22c3.867 0 7 3.133 7 7s-3.133 7-7 7-7-3.133-7-7 3.133-7 7-7Z" fill="#fff"/></svg>